<svg width="16" height="17" viewBox="0 0 16 17" fill="none" xmlns="http://www.w3.org/2000/svg">
<path d="M6.75556 12.4667L13.0222 5.80833L11.7778 4.48611L6.75556 9.82222L4.22222 7.13056L2.97778 8.45278L6.75556 12.4667ZM1.77778 17C1.28889 17 0.870518 16.8152 0.522667 16.4456C0.174815 16.076 0.000592593 15.6312 0 15.1111V1.88889C0 1.36944 0.174222 0.924926 0.522667 0.555333C0.871111 0.185741 1.28948 0.00062963 1.77778 0H14.2222C14.7111 0 15.1298 0.185111 15.4782 0.555333C15.8267 0.925556 16.0006 1.37007 16 1.88889V15.1111C16 15.6306 15.8261 16.0754 15.4782 16.4456C15.1304 16.8158 14.7117 17.0006 14.2222 17H1.77778Z" fill="#93A9FF"/>
</svg>
